<svg xmlns="http://www.w3.org/2000/svg" width="140" height="18" fill="none" viewBox="0 0 140 18"><g fill="#fff" opacity=".4"><path d="M72.075 2.39c.118.228.18.478.182.733v12.446a1.67 1.67 0 0 1-.515 1.172 1.8 1.8 0 0 1-1.213.498h-5.14V18h5.928a1.8 1.8 0 0 0 1.213-.497 1.67 1.67 0 0 0 .515-1.172V3.884a1.63 1.63 0 0 0-.264-.88 1.7 1.7 0 0 0-.706-.613M80.052 2.215v15.009H78.04v.765h2.8V2.215zM92.512 2.215v15.009h-2.236l.224.765h2.804V2.215zM87.658 10.353v6.878h-2.013v.765h2.801v-5.011zM99.887 11.451h2.315v-.78h-3.103a1.75 1.75 0 0 1-.758-.175c.137.284.355.525.63.694.273.17.59.26.916.261M100.959 12.45l-.792.176v1.878h.792zM104.844 2.39c.118.228.18.478.182.733v3.203l-2.035.454v.937l2.823-.633V3.88a1.63 1.63 0 0 0-.265-.878 1.7 1.7 0 0 0-.705-.611M34.918 2.39c.118.228.18.478.181.733v12.446c-.007.44-.192.86-.514 1.172a1.8 1.8 0 0 1-1.214.498h-4.19a1.75 1.75 0 0 1-.759-.176c.141.28.36.515.633.68s.588.255.91.257h4.198a1.8 1.8 0 0 0 1.214-.497 1.67 1.67 0 0 0 .514-1.172V3.884a1.63 1.63 0 0 0-.266-.88 1.7 1.7 0 0 0-.707-.613M42.755 7.966h.788V4.92h1.243v-.765h-2.032zM47.397 11.26c.293-.13.541-.34.715-.604s.267-.57.266-.882V3.88c0-.313-.09-.62-.263-.885a1.7 1.7 0 0 0-.71-.615c.116.227.178.478.181.732v5.912c.003.312-.088.619-.26.883s-.42.475-.714.607l1.167 6.717h-2.152l.133.762h2.8zM43.827 10.657h-1.072v6.574h-2.013v.765h2.8v-6.545h.418zM54.889 14.49h.792V4.92h1.24v-.765h-2.032zM17.735 7.966h.789V4.92h1.239v-.765h-2.028zM23.378 8.522V3.88a1.63 1.63 0 0 0-.265-.878 1.7 1.7 0 0 0-.705-.611c.118.227.18.477.182.732v4.642c.004.244-.049.486-.154.709a1.65 1.65 0 0 1-.456.575c.193.174.348.382.456.614s.167.483.173.737v5.162a1.67 1.67 0 0 1-.527 1.186c-.331.313-.776.486-1.24.483h-5.119v.762h5.927a1.8 1.8 0 0 0 1.213-.497c.323-.312.507-.732.515-1.173v-5.161a1.85 1.85 0 0 0-.178-.739 1.9 1.9 0 0 0-.462-.612c.2-.154.363-.35.474-.573s.168-.468.166-.716"/><path d="M59.747 3.123c0-.255-.063-.505-.182-.732.288.138.53.35.7.615.17.263.261.567.263.878v12.447a1.67 1.67 0 0 1-.515 1.172A1.8 1.8 0 0 1 58.8 18h-4.203a1.8 1.8 0 0 1-.91-.256 1.7 1.7 0 0 1-.632-.681c.235.114.494.174.758.176h4.206a1.8 1.8 0 0 0 1.213-.498c.323-.311.507-.731.515-1.172zM68.19 14.504h-.792V4.155h2.032v.765h-1.24zM105.026 9.639a1.6 1.6 0 0 0-.182-.732c.287.137.53.35.7.613s.261.566.262.877v5.934a1.67 1.67 0 0 1-.515 1.172c-.322.311-.757.49-1.213.497h-4.199a1.8 1.8 0 0 1-.91-.256 1.7 1.7 0 0 1-.632-.681c.235.114.495.174.758.176h4.203c.455-.008.89-.186 1.213-.498.322-.311.507-.731.515-1.172zM100.167 7.966V4.148l2.032.007v.765h-1.24v3.046zM112.673 10.671h.258l.526 1.64v5.685h-2.8v-.765h2.016zM117.63 2.215h1.046l-2.615 7.867 2.615 7.914h-2.823l-.023-.091-.22-.674h2.274l-2.615-7.91zM125.255 17.224V2.214h.788V17.99h-2.797v-.765zM137.044 11.418l2.168-2.094.788.765-2.164 2.094zM3.65 11.418l2.163-2.09.792.761-2.152 2.094zM18.524 14.504h-.789v-3.833h2.028v.78h-1.24zM31.03 14.504h-.789l.004-10.349h2.024v.765h-1.24z"/></g><path fill="#fff" d="M2.164 5.791 0 7.885l2.164 2.102 2.164-2.102zM135.559 5.795l-2.164 2.09 2.171 2.102 2.16-2.102z"/><path fill="#fff" fill-rule="evenodd" d="M20.926 7.031a1.6 1.6 0 0 0 .163-.705V1.669a1.66 1.66 0 0 0-.51-1.176A1.77 1.77 0 0 0 19.36 0h-5.927v15.782h5.931a1.8 1.8 0 0 0 1.213-.498 1.67 1.67 0 0 0 .515-1.172V8.951a1.85 1.85 0 0 0-.173-.737 1.9 1.9 0 0 0-.456-.614c.196-.154.354-.348.462-.569m-4.691-4.326h2.031v3.811h-2.031zm0 6.516h2.031v3.833h-2.031zM33.088.493A1.77 1.77 0 0 0 31.871 0h-4.207c-.227 0-.452.042-.662.126s-.4.207-.56.362-.289.34-.375.542c-.087.203-.131.42-.13.64v12.446c.003.441.186.864.51 1.176.323.312.76.49 1.217.493h4.207a1.8 1.8 0 0 0 1.213-.497c.322-.312.507-.732.515-1.172V1.669a1.66 1.66 0 0 0-.51-1.176m-4.344 2.212h2.028l.004 10.35h-2.032zM42.334 9.221l1.137 6.56h2.793l-1.168-6.717c.297-.13.548-.338.725-.602s.271-.57.272-.884V1.669a1.6 1.6 0 0 0-.126-.635 1.7 1.7 0 0 0-.369-.54 1.7 1.7 0 0 0-.554-.364 1.8 1.8 0 0 0-.656-.13H38.46v15.782h2.8v-6.56zm-1.08-6.516h2.031v3.811h-2.031zM57.736.493A1.77 1.77 0 0 0 56.518 0h-4.221a1.76 1.76 0 0 0-1.209.496c-.319.312-.498.734-.496 1.173v12.447c.003.441.187.864.51 1.176s.76.49 1.218.493h4.198a1.8 1.8 0 0 0 1.214-.497c.322-.312.507-.732.514-1.172V1.669a1.66 1.66 0 0 0-.51-1.176m-4.348 2.212h2.031v10.35h-2.03zM70.246.493A1.77 1.77 0 0 0 69.028 0h-5.927v15.785h5.927a1.8 1.8 0 0 0 1.213-.497 1.67 1.67 0 0 0 .515-1.172V1.669a1.66 1.66 0 0 0-.51-1.176m-4.344 2.212h2.03v10.35h-2.03z" clip-rule="evenodd"/><path fill="#fff" d="M78.551 0h-2.8v15.782h2.8zM91.015 15.782V0h-2.811v6.469L86.15 0h-2.778v15.782h2.789V8.888l2.054 6.894zM103.014 7.01a1.77 1.77 0 0 0-1.217-.494h-3.119v-3.81h2.031v2.789l2.823-.633V1.669a1.65 1.65 0 0 0-.51-1.176A1.78 1.78 0 0 0 101.804 0h-4.206c-.227 0-.45.044-.66.128-.209.084-.398.207-.558.362s-.287.34-.373.542-.13.419-.13.637v5.89c0 .22.046.436.133.638s.215.385.375.54c.16.154.351.276.56.36.21.082.434.125.66.124h3.104v3.837h-2.031v-2.819l-2.8.63v3.247c.003.44.186.861.507 1.174.322.312.757.49 1.213.495h4.199a1.8 1.8 0 0 0 1.213-.497 1.67 1.67 0 0 0 .515-1.172v-5.93a1.65 1.65 0 0 0-.511-1.177M116.387 15.785l-2.615-7.914L116.41 0h-2.846l-2.149 6.516h-.231V0h-2.801v15.782h2.801V9.225h.257l2.1 6.469.023.091zM123.773 0h-2.801v15.782h2.801z"/></svg>