<svg xmlns="http://www.w3.org/2000/svg" width="367" height="152" fill="none" viewBox="0 0 367 152"><g fill="#fff" clip-path="url(#a)"><g opacity=".4"><path d="M188.933 57.87c.311.616.474 1.296.477 1.986v33.778a4.61 4.61 0 0 1-4.529 4.53h-13.47v2.067h15.536a4.61 4.61 0 0 0 4.529-4.53V61.922a4.53 4.53 0 0 0-2.543-4.054M209.842 57.392v40.732h-5.274v2.077h7.341V57.392zM242.502 57.392v40.732h-5.86l.586 2.077h7.35V57.392zM229.778 79.477v18.667h-5.274v2.077h7.34v-13.6zM261.832 82.458h6.069V80.34h-8.135a4.5 4.5 0 0 1-1.987-.476 4.5 4.5 0 0 0 4.053 2.593M264.643 85.17l-2.076.477v5.096h2.076zM274.825 57.87c.31.616.473 1.296.476 1.986v8.693l-5.334 1.232v2.543l7.4-1.718v-8.693a4.53 4.53 0 0 0-2.542-4.044M91.54 57.87a4.5 4.5 0 0 1 .477 1.986v33.778a4.61 4.61 0 0 1-4.53 4.53H76.501a4.5 4.5 0 0 1-1.986-.477 4.53 4.53 0 0 0 4.042 2.544h11.006a4.61 4.61 0 0 0 4.53-4.53V61.922a4.54 4.54 0 0 0-2.553-4.054M112.081 73h2.066v-8.266h3.258v-2.076h-5.324zM124.249 81.94a4.44 4.44 0 0 0 2.573-4.033V61.913a4.52 4.52 0 0 0-2.553-4.073 4.6 4.6 0 0 1 .477 1.986v16.045a4.43 4.43 0 0 1-2.553 4.043l3.06 18.23h-5.642l.347 2.067h7.341zM114.892 80.302h-2.811v17.842h-5.274v2.077h7.34V82.457h1.093zM143.887 90.703h2.076V64.734h3.248v-2.076h-5.324zM46.503 73h2.066v-8.266h3.249v-2.076h-5.315zM61.294 74.51V61.913a4.53 4.53 0 0 0-2.543-4.044 4.5 4.5 0 0 1 .477 1.987v12.597a4.45 4.45 0 0 1-1.6 3.487 5.17 5.17 0 0 1 1.65 3.666v14.008a4.6 4.6 0 0 1-4.63 4.53h-13.42v2.067h15.536a4.61 4.61 0 0 0 4.53-4.53V81.673a5.16 5.16 0 0 0-1.679-3.666 4.43 4.43 0 0 0 1.679-3.497"/><path d="M156.621 59.856a4.4 4.4 0 0 0-.477-1.987 4.55 4.55 0 0 1 2.523 4.054V95.7a4.61 4.61 0 0 1-4.529 4.531h-11.016a4.532 4.532 0 0 1-4.043-2.544c.617.31 1.297.474 1.987.477h11.026a4.61 4.61 0 0 0 4.529-4.53zM178.752 90.743h-2.076V62.658H182v2.076h-3.248zM275.301 77.54a4.46 4.46 0 0 0-.477-1.987 4.54 4.54 0 0 1 2.523 4.043V95.7a4.61 4.61 0 0 1-4.529 4.531h-11.006a4.54 4.54 0 0 1-4.043-2.544c.617.31 1.297.474 1.987.477h11.016a4.61 4.61 0 0 0 4.529-4.53zM262.567 73V62.638l5.324.02v2.076h-3.248V73zM295.346 80.341h.676l1.38 4.451v15.429h-7.34v-2.077h5.284zM308.339 57.392h2.741l-6.854 21.35 6.854 21.479h-7.4l-.06-.249-.576-1.828h5.96l-6.854-21.468zM328.324 98.124V57.392h2.066v42.809h-7.331v-2.077zM359.226 82.368l5.681-5.682 2.066 2.076-5.671 5.682zM9.582 82.368l5.672-5.673 2.076 2.067-5.642 5.682zM48.57 90.743h-2.067V80.341h5.315v2.117H48.57zM81.349 90.743h-2.067l.01-28.085h5.305v2.076h-3.248z"/></g><path fill-rule="evenodd" d="M119.72 0c7.033 0 6.446 8.941-.646 11.355 6.794 4.54 1.907 17.197-8.622 17.207-12.366 0-14.542-13.64-7.132-18.36l1.331 1.78c-3.426 2.205-4.142 7.232-1.698 10.6q.764-.936 1.361-1.988l9.565-16.451C115.469 1.36 117.733 0 119.72 0m-14.473 24.608c1.562.848 3.32 1.27 5.096 1.222 8.562 0 11.85-12.2 3.626-13.938l-.994-.1-5.959 10.303a18.4 18.4 0 0 1-1.769 2.513m11.751-19.78-2.851 4.898c3.596-.07 5.603-.854 6.964-3.408 1.768-3.328-1.53-5.94-4.113-1.49" clip-rule="evenodd"/><path fill-rule="evenodd" d="m257.253 19.144.238-.268a2.26 2.26 0 0 1 1.411 1.142c-2.891 3.368-6.248 6.428-11.383 6.527h-.209a3.854 3.854 0 0 1-3.874-2.85l1.987-.994a1.34 1.34 0 0 0 .804.804 1.36 1.36 0 0 0 1.748-.804l5.334-9.25c.924-1.599-1.529-3.576-5.502 1.799l-10.569 18.389h-3.566l6.436-11.167a9.6 9.6 0 0 1-3.784.934h-.785c-3.834 4.838-10.082 3.964-10.082-.546-2.185 2.096-4.45 3.646-6.506 3.646-2.851 0-3.914-2.415-2.414-5.027l4.589-7.948c1.53-2.633-.874-3.507-6.317 3.328l-5.364 9.349h-3.566l1.212-2.107a12.55 12.55 0 0 1-5.433 2.345h-.1c-.328.07-.665.07-.993.07a3.854 3.854 0 0 1-3.874-2.852l2.156-1.152a1.98 1.98 0 0 0 1.668 1.291c2.206 0 2.622-2.893 3.057-5.914.222-1.538.448-3.108.917-4.348q-.309.412-.658.881c-1.186 1.595-2.708 3.641-4.369 5.576-2.92 3.398-6.357 6.528-9.208 6.528s-3.913-2.405-2.413-5.027l3.735-6.488a1.75 1.75 0 0 0-.209-1.987l-.477-.576-.647.87c-2.418 3.251-3.629 4.88-5.193 6.71-2.98 3.398-6.954 6.527-10.927 6.527-3.119 0-4.976-1.937-4.788-4.49a10.3 10.3 0 0 1-4.688 1.39q-.392.03-.785 0a7.81 7.81 0 0 1-5.959 3.28c-2.285 0-4.083-1.362-4.083-3.776-2.185 2.086-4.45 3.626-6.496 3.626-2.851 0-3.904-2.404-2.414-5.027l3.735-6.487a1.745 1.745 0 0 0-.209-1.987l-.476-.576-.648.87c-2.418 3.251-3.628 4.88-5.193 6.71-2.92 3.397-6.288 6.527-9.208 6.527-1.798 0-2.891-.954-3.059-2.315-1.699 1.4-3.467 2.315-4.897 2.315-2.851 0-3.914-2.404-2.414-5.027l4.966-8.564c1.5-2.583 4.142-4.083 6.05-4.083a3.675 3.675 0 0 1 3.734 3.408h1.987l-5.711 9.994c-.815 1.44-.378 1.987.407 1.987 1.569 0 4.043-2.325 6.595-5.305l.239-.268c2.284-2.752 4.4-5.743 5.96-7.948l-.308-.407c-1.262-1.63-1.073-3.636.914-5.435l1.837 1.987-.149.11q-.209.188-.329.443a1.37 1.37 0 0 0 .27 1.543l1.986 2.375c1.152 1.39 1.728 2.643.507 4.788l-3.536 6.19c-.815 1.44-.378 1.987.407 1.987 1.569 0 4.043-2.325 6.595-5.306l.189-.208 9.903-17.108h3.606l-4.49 7.78a4.13 4.13 0 0 1 2.315-.786h.407a2.98 2.98 0 0 1 2.791 3.16 8.7 8.7 0 0 1-1.331 4.063l-3.327 5.742a7.54 7.54 0 0 0 5.334-2.613l.208-.238 3.447-5.961a7.47 7.47 0 0 1 6.536-4.053c2.89 0 4.728 2.454 2.821 5.712l-.507.884c-2.652 4.58-6.933 5.067-9.208 4.074l-.337.616c-1.629 2.85-.338 4.212 1.837 4.212 2.484 0 5.742-2.325 8.294-5.305l.239-.269c2.241-2.687 4.301-5.602 5.849-7.791l.111-.156-.298-.408c-1.262-1.629-1.073-3.636.913-5.434l1.838 1.987-.109.09a1.372 1.372 0 0 0-.312 1.533c.072.17.178.325.312.453l1.986 2.375c1.153 1.39 1.729 2.642.507 4.788l-3.536 6.19c-.815 1.44-.378 1.986.407 1.986 1.569 0 4.043-2.324 6.596-5.305l.238-.268c2.532-2.967 5.071-6.504 6.74-8.83.433-.602.807-1.123 1.107-1.532l2.652 1.43c-1.321 2.746-1.752 5.73-2.138 8.405-.25 1.728-.481 3.328-.921 4.65a21.9 21.9 0 0 0 4.221-3.845l.199-.228 9.804-17.167h3.536l-5.642 9.825c1.808-1.838 3.437-2.682 4.967-2.682 1.976 0 3.437 1.937 1.907 4.62l-5.096 8.94c-.814 1.441-.377 1.988.407 1.988 1.57 0 4.043-2.325 6.596-5.306l.189-.218 1.45-2.464 1.738-2.98c2.036-3.537 4.142-4.62 6.864-4.62 3.328 0 5.304 3.497 3.159 7.203l-3.328 5.742a7.6 7.6 0 0 0 5.334-2.613l.239-.268 5.522-9.587h3.536l-.715 1.222c3.606-3.229 8.94-1.351 5.642 4.252l-3.903 6.696c-.22.35-.429.756-.648 1.182-.247.48-.507.986-.813 1.47a16.6 16.6 0 0 0 6.457-4.967m-76.683-4.49c2.106-3.666-1.55-4.242-3.536-.745l-2.275 3.973c1.331.477 3.606.547 5.304-2.344zm-54.553 9.795c1.461 0 3.566-1.6 5.712-4.967l2.821-4.878c1.698-3.19-2.066-4.043-3.973-.745l-4.967 8.603c-.814 1.44-.377 1.987.407 1.987m31.393-.465c.257.224.589.34.93.326l-.01-.04a3.32 3.32 0 0 0 2.682-1.728 5.2 5.2 0 0 1-2.245-3.666l-1.192 2.235a3.97 3.97 0 0 0-.616 1.838v.159c.033.339.194.652.451.876m3.472-4.537a3.8 3.8 0 0 0 1.143 1.416l3.615-6.19a4.3 4.3 0 0 0 .676-2.106 1 1 0 0 0 0-.169 1.35 1.35 0 0 0-1.341-1.361c-2.007 0-4.45 4.113-4.45 6.627a3.8 3.8 0 0 0 .357 1.783m73.555-.353h.178l2.563-4.44c2.146-3.676-1.251-5.335-3.735-1.123l-4.35 7.56c-2.106 3.676 1.937 4.212 3.605 1.361v-.07a2.3 2.3 0 0 1-.337-1.191 2.072 2.072 0 0 1 .604-1.478 2.08 2.08 0 0 1 1.472-.619" clip-rule="evenodd"/><path d="M5.688 67.099.017 72.78l5.671 5.703 5.672-5.703zM355.332 67.109l-5.672 5.672 5.692 5.703 5.662-5.703zM166.793 123.041h1.4c5.394.278 9.625 1.718 12.307 4.689 2.722-2.981 6.953-4.431 12.377-4.689h1.341c7.366.498 12.278 3.926 17.184 7.349 3.106 2.168 6.21 4.333 9.933 5.754 1.493.68 3.118 1.02 4.758.994 2.463-.268 4.033-2.762 3.715-5.544-.338-2.98-3.258-5.573-6.516-4.143a4.3 4.3 0 0 0-1.162.795q-.05.046-.101.107l-.063.075c-.218.262-.497.597-.999.424-.563-.47-.061-1.144.256-1.569l.052-.07a5.97 5.97 0 0 1 6.03-2.98c5.592.397 10.598 5.305 9.744 12.736-1.907 11.057-12.019 14.038-24.008 15.031h-3.904a47.97 47.97 0 0 1-28.577-10.928A48.73 48.73 0 0 1 151.853 152h-3.834c-12.078-1.063-22.29-3.974-24.068-15.359-.675-8.107 4.152-12.09 9.755-12.498a6.05 6.05 0 0 1 6.099 2.981l.074.121c.284.454.679 1.087.233 1.587-.498.09-.788-.217-1.019-.461q-.075-.08-.143-.145a3.98 3.98 0 0 0-2.801-1.222c-3.834-.139-6.039 4.123-4.509 7.561a4.29 4.29 0 0 0 3.347 2.503c1.638.01 3.26-.328 4.758-.993a24 24 0 0 0 3.844-1.888c1.895-1.099 3.684-2.317 5.471-3.535 5.097-3.474 10.187-6.942 17.733-7.611"/><path fill-rule="evenodd" d="M54.866 70.463a4.44 4.44 0 0 0 .428-1.914V55.912a4.57 4.57 0 0 0-4.53-4.53H35.23V94.21h15.546a4.61 4.61 0 0 0 4.53-4.53V75.672a5.17 5.17 0 0 0-1.65-3.666 4.44 4.44 0 0 0 1.211-1.543M42.57 58.723h5.324v10.343H42.57zm0 17.684h5.324V86.81H42.57zM86.745 52.72a4.57 4.57 0 0 0-3.191-1.338H72.528a4.517 4.517 0 0 0-4.53 4.53V89.69a4.57 4.57 0 0 0 4.53 4.53h11.026a4.61 4.61 0 0 0 4.53-4.53V55.912a4.57 4.57 0 0 0-1.339-3.192m-11.386 6.004h5.314l.01 28.085h-5.324zM110.979 76.407l2.98 17.803h7.32l-3.059-18.23a4.44 4.44 0 0 0 2.612-4.033V55.912a4.5 4.5 0 0 0-1.296-3.19 4.5 4.5 0 0 0-3.173-1.34h-15.536V94.21h7.341V76.407zm-2.831-17.683h5.324v10.342h-5.324zM151.35 52.72a4.57 4.57 0 0 0-3.192-1.338h-11.065a4.52 4.52 0 0 0-4.47 4.53V89.69a4.57 4.57 0 0 0 4.529 4.53h11.006a4.61 4.61 0 0 0 4.53-4.53V55.912a4.57 4.57 0 0 0-1.338-3.192m-11.396 6.004h5.324v28.085h-5.324zM184.139 52.72a4.57 4.57 0 0 0-3.192-1.338h-15.535V94.22h15.535a4.61 4.61 0 0 0 4.53-4.53V55.912a4.57 4.57 0 0 0-1.338-3.192m-11.387 6.004h5.325v28.085h-5.325z" clip-rule="evenodd"/><path d="M205.909 51.382h-7.341V94.21h7.341zM238.579 94.21V51.382h-7.371v17.554l-5.383-17.554h-7.281V94.21h7.311V75.503l5.383 18.707zM270.03 70.404a4.57 4.57 0 0 0-3.192-1.338h-8.175V58.724h5.324v7.57l7.401-1.719v-8.663a4.57 4.57 0 0 0-4.53-4.53h-11.026a4.515 4.515 0 0 0-4.169 2.8 4.5 4.5 0 0 0-.34 1.73v15.985a4.509 4.509 0 0 0 2.799 4.17 4.5 4.5 0 0 0 1.73.34h8.135V86.82h-5.324v-7.65l-7.34 1.709v8.812a4.57 4.57 0 0 0 4.509 4.53h11.006a4.61 4.61 0 0 0 4.53-4.53V73.596a4.57 4.57 0 0 0-1.338-3.192M305.081 94.22l-6.854-21.479 6.913-21.359h-7.46l-5.632 17.684h-.606V51.382h-7.34V94.21h7.34V76.417h.676l5.503 17.555.059.248zM324.44 51.382h-7.341V94.21h7.341z"/></g><defs><clipPath id="a"><path fill="#fff" d="M0 0h367v152H0z"/></clipPath></defs></svg>