<svg xmlns="http://www.w3.org/2000/svg" width="187" height="24" fill="none" viewBox="0 0 187 24"><g fill="#dbb590" opacity=".4"><path d="M96.271 3.187c.158.303.242.637.243.977v16.595a2.23 2.23 0 0 1-.687 1.563 2.4 2.4 0 0 1-1.62.663h-6.865V24h7.917a2.4 2.4 0 0 0 1.62-.663c.431-.415.678-.976.688-1.563V5.18a2.17 2.17 0 0 0-.353-1.174 2.3 2.3 0 0 0-.943-.818M106.927 2.953v20.012h-2.688v1.02h3.74V2.953zM123.57 2.953v20.012h-2.987l.299 1.02h3.746V2.953zM117.086 13.804v9.171h-2.688v1.02h3.741v-6.682zM133.42 15.268h3.093v-1.04h-4.146a2.35 2.35 0 0 1-1.012-.234c.184.38.475.7.841.926s.79.346 1.224.348M134.853 16.6l-1.058.235v2.504h1.058zM140.041 3.187c.158.303.241.637.243.977v4.27l-2.718.606v1.25l3.771-.845V5.174a2.17 2.17 0 0 0-.354-1.171 2.3 2.3 0 0 0-.942-.816M46.64 3.187c.158.303.241.637.243.976V20.76a2.23 2.23 0 0 1-.688 1.563 2.4 2.4 0 0 1-1.62.663h-5.599a2.35 2.35 0 0 1-1.012-.235c.189.373.481.688.845.908s.785.34 1.215.342h5.609a2.4 2.4 0 0 0 1.62-.663c.43-.415.677-.976.688-1.563V5.18a2.17 2.17 0 0 0-.356-1.175 2.3 2.3 0 0 0-.945-.817M57.108 10.621h1.053v-4.06h1.66V5.54h-2.713zM63.309 15.014a2.24 2.24 0 0 0 .956-.806c.232-.351.355-.76.355-1.176V5.174c0-.418-.122-.827-.352-1.181a2.3 2.3 0 0 0-.95-.82c.156.303.24.637.244.976v7.883a2.1 2.1 0 0 1-.349 1.177c-.23.352-.561.633-.952.81l1.559 8.956h-2.875l.177 1.015h3.74zM58.54 14.209h-1.432v8.766H54.42v1.02h3.74v-8.727h.558zM73.316 19.32h1.058V6.56h1.655V5.54h-2.713zM23.69 10.621h1.052v-4.06h1.656V5.54h-2.709zM31.227 11.363v-6.19a2.17 2.17 0 0 0-.355-1.17 2.3 2.3 0 0 0-.941-.816c.158.303.241.637.243.976v6.19a2.1 2.1 0 0 1-.206.945 2.2 2.2 0 0 1-.61.768c.258.23.466.509.61.818.144.31.223.644.231.983v6.882a2.22 2.22 0 0 1-.704 1.581 2.4 2.4 0 0 1-1.655.645h-6.838v1.015h7.916a2.4 2.4 0 0 0 1.621-.663c.43-.415.677-.975.688-1.562v-6.883c-.01-.34-.091-.675-.238-.984a2.5 2.5 0 0 0-.618-.817c.269-.205.485-.466.633-.764.148-.297.224-.624.223-.954"/><path d="M79.805 4.163a2.1 2.1 0 0 0-.243-.976c.385.185.709.469.936.82.227.352.348.758.35 1.172v16.595a2.23 2.23 0 0 1-.688 1.563 2.4 2.4 0 0 1-1.62.663h-5.614c-.43-.003-.85-.12-1.215-.342a2.26 2.26 0 0 1-.845-.908c.314.153.66.233 1.012.235h5.619a2.4 2.4 0 0 0 1.62-.663c.431-.415.678-.976.688-1.563zM91.083 19.339h-1.058v-13.8h2.713V6.56h-1.655zM140.284 12.852a2.14 2.14 0 0 0-.243-.976c.384.183.708.466.935.817s.349.756.351 1.17v7.911a2.22 2.22 0 0 1-.688 1.563 2.4 2.4 0 0 1-1.62.663h-5.609a2.37 2.37 0 0 1-1.215-.342 2.26 2.26 0 0 1-.845-.908c.314.153.661.233 1.012.235h5.614a2.4 2.4 0 0 0 1.621-.663c.43-.415.677-.976.687-1.563zM133.795 10.621v-5.09l2.713.009v1.02h-1.655v4.061zM150.499 14.228h.344l.704 2.187v7.58h-3.741v-1.02h2.693zM157.12 2.953h1.397l-3.493 10.49 3.493 10.552h-3.771l-.03-.122-.294-.898h3.037l-3.493-10.548zM167.304 22.965V2.953h1.053v21.032h-3.735v-1.02zM183.052 15.224l2.895-2.792 1.053 1.02-2.89 2.792zM4.875 15.224l2.89-2.787 1.058 1.015-2.875 2.792zM24.742 19.339H23.69v-5.11h2.709v1.039h-1.656zM41.447 19.339h-1.053l.005-13.8h2.703V6.56h-1.655z"/></g><path fill="#dbb590" d="M2.89 7.722 0 10.514l2.89 2.801 2.89-2.801zM181.068 7.727l-2.891 2.787 2.901 2.801 2.885-2.801z"/><path fill="#dbb590" fill-rule="evenodd" d="M27.951 9.375c.145-.294.22-.615.218-.94v-6.21a2.2 2.2 0 0 0-.682-1.567A2.37 2.37 0 0 0 25.861 0h-7.917v21.042h7.922a2.4 2.4 0 0 0 1.62-.663c.431-.415.678-.976.688-1.563v-6.882a2.5 2.5 0 0 0-.23-.982 2.5 2.5 0 0 0-.61-.819c.262-.205.473-.464.617-.758m-6.266-5.768h2.713v5.081h-2.713zm0 8.688h2.713v5.11h-2.713zM44.197.658A2.37 2.37 0 0 0 42.57 0h-5.618c-.304 0-.604.056-.885.168-.28.112-.535.276-.75.482a2.2 2.2 0 0 0-.5.723c-.115.27-.174.56-.174.853V18.82c.006.589.25 1.152.682 1.568a2.37 2.37 0 0 0 1.627.658h5.618a2.4 2.4 0 0 0 1.62-.663c.431-.415.678-.976.688-1.563V2.226a2.2 2.2 0 0 0-.681-1.568m-5.803 2.95h2.708l.005 13.798h-2.713zM56.546 12.295l1.519 8.747h3.73l-1.559-8.957c.396-.172.732-.45.968-.802.236-.351.362-.76.363-1.18V2.227a2.1 2.1 0 0 0-.168-.848 2.2 2.2 0 0 0-.492-.72 2.3 2.3 0 0 0-.741-.484A2.4 2.4 0 0 0 59.29 0h-7.917v21.042h3.74v-8.747zm-1.443-8.688h2.713v5.081h-2.713zM77.119.658A2.37 2.37 0 0 0 75.493 0h-5.64a2.35 2.35 0 0 0-1.613.66c-.427.418-.666.98-.664 1.566V18.82c.005.589.25 1.152.682 1.568a2.37 2.37 0 0 0 1.626.658h5.609a2.4 2.4 0 0 0 1.62-.663c.43-.415.677-.976.688-1.563V2.226a2.2 2.2 0 0 0-.682-1.568m-5.808 2.95h2.713v13.798h-2.713zM93.828.658A2.37 2.37 0 0 0 92.202 0h-7.917v21.047h7.917a2.4 2.4 0 0 0 1.62-.663c.43-.415.677-.976.688-1.563V2.226a2.2 2.2 0 0 0-.682-1.568m-5.802 2.95h2.713v13.798h-2.713z" clip-rule="evenodd"/><path fill="#dbb590" d="M104.922 0h-3.741v21.042h3.741zM121.571 21.042V0h-3.756v8.625L115.071 0h-3.71v21.042h3.725v-9.19l2.744 9.19zM137.598 9.346a2.37 2.37 0 0 0-1.627-.658h-4.165v-5.08h2.713v3.718l3.771-.844V2.226a2.2 2.2 0 0 0-.682-1.568A2.37 2.37 0 0 0 135.982 0h-5.619c-.302 0-.602.059-.881.17a2.3 2.3 0 0 0-.746.484 2.2 2.2 0 0 0-.498.721c-.115.27-.174.56-.173.85v7.854c.001.292.061.58.177.85.116.269.287.514.501.72s.469.368.748.48c.28.11.58.167.882.166h4.146v5.116h-2.713v-3.759l-3.741.84v4.33c.005.586.249 1.148.678 1.564s1.011.653 1.62.661h5.608a2.4 2.4 0 0 0 1.621-.663c.431-.415.677-.976.688-1.563v-7.907a2.2 2.2 0 0 0-.682-1.568M155.46 21.047l-3.493-10.553L155.49 0h-3.801l-2.871 8.688h-.308V0h-3.741v21.042h3.741V12.3h.344l2.804 8.625.031.122zM165.325 0h-3.741v21.042h3.741z"/></svg>