<svg xmlns="http://www.w3.org/2000/svg" width="16" height="10" fill="none" viewBox="0 0 16 10"><path fill="#fff" d="M15.915 9.027a1 1 0 0 0-.054-.114q-.416-.822-1.592-2.018l-.016-.018-.008-.008-.008-.01h-.009q-.534-.556-.674-.747-.258-.365-.117-.739.1-.281.749-1.194.342-.483.542-.776Q16.17 1.305 15.978.72l-.05-.09q-.05-.084-.258-.151-.208-.07-.534-.023l-2.398.017a.3.3 0 0 0-.167.006l-.108.027-.042.023-.033.027a.4.4 0 0 0-.091.096.7.7 0 0 0-.084.16q-.39 1.104-.891 2.052a20 20 0 0 1-.567.982 4.7 4.7 0 0 1-.432.612q-.174.196-.317.315-.142.118-.217.1l-.142-.036a.6.6 0 0 1-.188-.224 1.1 1.1 0 0 1-.096-.355 5 5 0 0 1-.03-.37 7 7 0 0 1 .005-.439q.01-.282.008-.382 0-.347.013-.753.012-.405.022-.644.007-.236.008-.503 0-.265-.03-.415T9.273.461A.47.47 0 0 0 9.1.243a.9.9 0 0 0-.279-.124Q8.38.01 7.697.001q-1.55-.018-1.99.22a1.1 1.1 0 0 0-.317.274q-.15.201-.043.218.5.084.71.392l.05.109q.059.12.116.42t.075.665q.042.667 0 1.141-.042.476-.079.739-.037.265-.112.43a2 2 0 0 1-.1.2.14.14 0 0 1-.04.044.6.6 0 0 1-.226.047q-.116 0-.282-.127a2 2 0 0 1-.347-.35 5 5 0 0 1-.405-.627q-.224-.402-.467-.95l-.133-.264A22 22 0 0 1 3.382.894a.6.6 0 0 0-.2-.292L3.14.575A.5.5 0 0 0 3.006.5a1 1 0 0 0-.191-.06L.532.458q-.35 0-.475.174L.024.686A.3.3 0 0 0 0 .833q0 .099.05.247.5 1.286 1.088 2.482t1.02 1.926.884 1.377.596.83.229.273l.209.219q.2.219.587.523.386.306.86.603.47.297 1.095.483.624.188 1.216.15h.959q.291-.028.44-.2l.033-.047a.6.6 0 0 0 .062-.168q.03-.114.03-.25a3.4 3.4 0 0 1 .054-.706q.06-.316.142-.474.078-.162.18-.269a.7.7 0 0 1 .141-.132 1 1 0 0 1 .067-.032q.2-.073.47.141.272.215.508.53.238.314.57.706.333.391.583.585l.167.109q.167.11.432.2a.84.84 0 0 0 .467.045l2.133-.036q.316 0 .491-.114.174-.115.21-.25a.8.8 0 0 0 .004-.312 1.4 1.4 0 0 0-.062-.245"/></svg>